<?xml version="1.0" encoding="UTF-8" standalone="no"?>
<!-- Created with Inkscape (http://www.inkscape.org/) -->

<svg
   width="44.257576mm"
   height="12.70001mm"
   viewBox="0 0 44.257576 12.70001"
   version="1.1"
   id="svg1"
   xml:space="preserve"
   inkscape:version="1.4.2 (ebf0e940d0, 2025-05-08)"
   sodipodi:docname="controls.svg"
   xmlns:inkscape="http://www.inkscape.org/namespaces/inkscape"
   xmlns:sodipodi="http://sodipodi.sourceforge.net/DTD/sodipodi-0.dtd"
   xmlns="http://www.w3.org/2000/svg"
   xmlns:svg="http://www.w3.org/2000/svg"><sodipodi:namedview
     id="namedview1"
     pagecolor="#ffffff"
     bordercolor="#000000"
     borderopacity="0.25"
     inkscape:showpageshadow="2"
     inkscape:pageopacity="0.0"
     inkscape:pagecheckerboard="0"
     inkscape:deskcolor="#d1d1d1"
     inkscape:document-units="mm"
     showguides="true"
     inkscape:zoom="3.9962644"
     inkscape:cx="89.333428"
     inkscape:cy="35.908535"
     inkscape:window-width="1920"
     inkscape:window-height="996"
     inkscape:window-x="0"
     inkscape:window-y="0"
     inkscape:window-maximized="1"
     inkscape:current-layer="layer1" /><defs
     id="defs1" /><g
     inkscape:label="Calque 1"
     inkscape:groupmode="layer"
     id="layer1"
     transform="translate(99.902888,-148.59363)"><path
       stroke="none"
       fill="#ffffff"
       d="m -83.161979,148.59363 h 8.466667 c 1.411111,0 2.116667,0.70555 2.116667,2.11666 v 8.46667 c 0,1.41111 -0.705556,2.11667 -2.116667,2.11667 h -8.466667 c -1.411111,0 -2.116666,-0.70556 -2.116666,-2.11667 v -8.46667 c 0,-1.41111 0.705555,-2.11666 2.116666,-2.11666"
       id="path3"
       style="fill:#ffffff;stroke-width:0.264583"
       sodipodi:nodetypes="csssssssc" /><path
       stroke="none"
       fill="#ffffff"
       d="m -66.228645,148.59364 h 8.466667 c 1.411111,0 2.116667,0.70555 2.116667,2.11666 v 8.46667 c 0,1.41111 -0.705556,2.11667 -2.116667,2.11667 h -8.466667 c -1.411111,0 -2.116666,-0.70556 -2.116666,-2.11667 v -8.46667 c 0,-1.41111 0.705555,-2.11666 2.116666,-2.11666"
       id="path3-3"
       style="fill:#ffffff;stroke-width:0.264583"
       sodipodi:nodetypes="csssssssc" /><path
       stroke="none"
       fill="#ffffff"
       d="m -97.738118,148.59363 h 6.061377 c 1.443179,0.0481 2.164768,0.81777 2.164768,2.3091 v 5.77273 c 0,1.27 -0.452197,2.3572 -1.35659,3.26159 -0.904393,0.90439 -1.991592,1.35659 -3.261595,1.35659 h -1.15454 c -1.27,0 -2.3572,-0.4522 -3.2616,-1.35659 -0.90439,-0.90439 -1.35659,-1.99159 -1.35659,-3.26159 v -5.77273 c 0,-1.49129 0.72159,-2.26099 2.16477,-2.3091"
       id="path2"
       style="fill:#ffffff;stroke-width:0.288636"
       sodipodi:nodetypes="ccssssssssc" /><path
       stroke="none"
       fill="#ffffff"
       d="m -97.738118,148.59363 h 6.061372 q 2.164768,0.0721 2.164768,2.3091 v 5.77273 q 0,1.905 -1.35659,3.26159 -1.35659,1.35659 -3.26159,1.35659 h -1.15454 q -1.905,0 -3.2616,-1.35659 -1.35659,-1.35659 -1.35659,-3.26159 v -5.77273 q 0,-2.23694 2.16477,-2.3091 m 7.36023,8.08183 V 154.655 h -2.61216 q -0.0866,0.53398 -0.49068,0.93807 -0.50511,0.50511 -1.22671,0.50511 -0.72159,0 -1.2267,-0.50511 -0.40409,-0.40409 -0.47625,-0.93807 h -2.6266 v 2.02046 q 0,1.5442 1.11126,2.65545 1.09682,1.09682 2.64103,1.09682 h 1.15454 q 1.5442,0 2.655459,-1.09682 1.096811,-1.11125 1.096811,-2.65545 m -4.93568,-5.22432 q -0.25978,0.24533 -0.25978,0.60613 v 2.30909 q 0,0.3608 0.25978,0.62057 0.24534,0.24534 0.60613,0.24534 0.3608,0 0.62058,-0.24534 0.24533,-0.25977 0.24533,-0.62057 v -2.30909 q 0,-0.3608 -0.24533,-0.60613 -0.25978,-0.25978 -0.62058,-0.25978 -0.36079,0 -0.60613,0.25978 m 3.492505,-1.9916 h -2.309095 v 0.96694 q 0.3608,0.11545 0.64943,0.40408 0.50511,0.50513 0.50511,1.22671 v 1.73182 h 2.59773 v -2.88636 q 0,-1.44319 -1.443175,-1.44319"
       id="path1"
       style="fill:#92a1ad;stroke-width:0.288636" /><path
       stroke="none"
       fill="#ffffff"
       d="m -84.484895,150.71029 v 8.46667 q 0,1.32292 1.322916,1.32292 h 8.466667 q 1.322917,0 1.322917,-1.32292 v -8.46667 q 0,-1.32291 -1.322917,-1.32291 h -8.466667 q -1.322916,0 -1.322916,1.32291 m 1.322916,-2.11666 h 8.466667 q 2.116667,0 2.116667,2.11666 v 8.46667 q 0,2.11667 -2.116667,2.11667 h -8.466667 q -2.116666,0 -2.116666,-2.11667 v -8.46667 q 0,-2.11666 2.116666,-2.11666 m 2.645834,8.73125 h 3.175 v -1.05834 h 1.058333 v 1.85209 l -0.264583,0.26458 h -4.7625 l -0.264584,-0.26458 v -1.85209 h 1.058334 v 1.05834"
       id="path1-6"
       style="fill:#92a1ad;stroke-width:0.264583" /><path
       stroke="none"
       fill="#ffffff"
       d="m -57.761978,149.38738 h -8.466663 q -1.32292,0 -1.32292,1.32292 v 8.46667 q 0,1.32291 1.32292,1.32291 h 8.466663 q 1.322917,0 1.322917,-1.32291 v -8.46667 q 0,-1.32292 -1.322917,-1.32292 m 2.116667,1.32292 v 8.46667 q 0,2.11666 -2.116667,2.11666 h -8.466663 q -2.11667,0 -2.11667,-2.11666 v -8.46667 q 0,-2.11667 2.11667,-2.11667 h 8.466663 q 2.116667,0 2.116667,2.11667 m -6.35,1.5875 2.116666,2.11667 v 0.52916 h -1.058333 v 2.64584 h -2.116663 v -2.64584 h -1.05834 v -0.52916 l 2.11667,-2.11667"
       id="path1-20"
       style="fill:#92a1ad;stroke-width:0.264583" /><g
       id="g2"
       transform="matrix(0.26458333,0,0,0.26458333,-55.827083,138.90638)" /></g></svg>
