<?xml version="1.0" encoding="UTF-8" standalone="no"?>
<!-- Created with Inkscape (http://www.inkscape.org/) -->

<svg
   width="341.78979"
   height="135.46968"
   viewBox="0 0 90.431881 35.84302"
   version="1.1"
   id="svg1"
   xml:space="preserve"
   inkscape:version="1.4.2 (ebf0e940d0, 2025-05-08)"
   sodipodi:docname="logo.svg"
   inkscape:export-filename="../img/logo.png"
   inkscape:export-xdpi="287.61539"
   inkscape:export-ydpi="287.61539"
   xmlns:inkscape="http://www.inkscape.org/namespaces/inkscape"
   xmlns:sodipodi="http://sodipodi.sourceforge.net/DTD/sodipodi-0.dtd"
   xmlns="http://www.w3.org/2000/svg"
   xmlns:svg="http://www.w3.org/2000/svg"><sodipodi:namedview
     id="namedview1"
     pagecolor="#000000"
     bordercolor="#000000"
     borderopacity="0.25"
     inkscape:showpageshadow="2"
     inkscape:pageopacity="0.0"
     inkscape:pagecheckerboard="true"
     inkscape:deskcolor="#d1d1d1"
     inkscape:document-units="px"
     inkscape:zoom="1.3404137"
     inkscape:cx="138.01709"
     inkscape:cy="74.976852"
     inkscape:window-width="1920"
     inkscape:window-height="996"
     inkscape:window-x="0"
     inkscape:window-y="0"
     inkscape:window-maximized="1"
     inkscape:current-layer="layer1" /><defs
     id="defs1"><linearGradient
       gradientUnits="userSpaceOnUse"
       x1="-819.20001"
       x2="819.20001"
       spreadMethod="pad"
       gradientTransform="matrix(-0.00920105,0,0,-0.0068512,49.95,43.55)"
       id="gradient0"><stop
         offset="0"
         stop-color="#D6DCE0"
         id="stop1" /><stop
         offset="1"
         stop-color="#A8B2BB"
         id="stop2" /></linearGradient><linearGradient
       gradientUnits="userSpaceOnUse"
       x1="-819.20001"
       x2="819.20001"
       spreadMethod="pad"
       gradientTransform="matrix(0.00907898,0.01222229,-0.01222229,0.00907898,19.5,22.5)"
       id="gradient1"><stop
         offset="0"
         stop-color="#FFFFFF"
         id="stop3" /><stop
         offset="1"
         stop-color="#BBC4CB"
         id="stop4" /></linearGradient><linearGradient
       gradientUnits="userSpaceOnUse"
       x1="-819.20001"
       x2="819.20001"
       spreadMethod="pad"
       gradientTransform="matrix(-0.00920105,0,0,-0.0068512,49.95,43.55)"
       id="gradient0-7"><stop
         offset="0"
         stop-color="#D6DCE0"
         id="stop1-2" /><stop
         offset="1"
         stop-color="#A8B2BB"
         id="stop2-4" /></linearGradient><linearGradient
       gradientUnits="userSpaceOnUse"
       x1="-819.20001"
       x2="819.20001"
       spreadMethod="pad"
       gradientTransform="matrix(0.00907898,0.01222229,-0.01222229,0.00907898,19.5,22.5)"
       id="gradient1-0"><stop
         offset="0"
         stop-color="#FFFFFF"
         id="stop3-6" /><stop
         offset="1"
         stop-color="#BBC4CB"
         id="stop4-2" /></linearGradient></defs><g
     inkscape:label="Calque 1"
     inkscape:groupmode="layer"
     id="layer1"
     transform="translate(-32.443364,-112.94531)"><path
       style="opacity:1;fill:#ffffff;stroke:none;stroke-width:4.23333;stroke-linecap:round;stroke-linejoin:round;stroke-miterlimit:8;stroke-dasharray:none;paint-order:stroke fill markers"
       d="m 89.358104,136.89687 c 0,0 27.243746,-3.53433 27.595066,-10.96249 0.21137,-4.46916 -18.850682,-3.94779 -18.850682,-3.94779 0,0 24.887012,-2.24842 24.772362,4.04649 -0.16897,9.27757 -33.516746,10.86379 -33.516746,10.86379 z"
       id="path17"
       sodipodi:nodetypes="cscsc" /><g
       id="text1"
       style="opacity:1"><path
         style="font-weight:bold;font-size:16.9333px;font-family:'Roboto Mono';-inkscape-font-specification:'Roboto Mono Bold';text-align:end;letter-spacing:0px;baseline-shift:baseline;text-anchor:end;display:inline;overflow:visible;vector-effect:none;fill:#92a1ad;stroke-linecap:round;stroke-linejoin:round;stroke-miterlimit:8;paint-order:stroke fill markers;enable-background:accumulate;stop-color:#000000;stop-opacity:1"
         d="m 41.080078,112.94531 c -1.421012,0 -4.177116,0.22789 -5.792969,0.34571 -0.01564,10e-4 -0.03126,0.002 -0.04687,0.004 -0.51076,0.0486 -1.161835,0.24863 -1.675781,0.75 -0.513945,0.50137 -0.746127,1.20959 -0.777344,1.74024 -0.153602,2.25481 -0.34375,5.49923 -0.34375,9.41992 0,0.699 0.464643,1.63306 0.941407,2.04492 0.02498,0.0216 0.03621,0.017 0.06055,0.0371 -0.324539,0.4802 -0.606037,1.00934 -0.638671,1.43359 -0.0015,0.0149 -0.0028,0.0299 -0.0039,0.0449 -0.137855,2.46416 -0.359375,7.49758 -0.359375,8.85547 0,0.83258 0.27882,1.23494 0.496094,1.57618 0.217274,0.34123 0.446414,0.60221 0.689453,0.84179 0.243039,0.23959 0.4934,0.44947 0.798828,0.64649 0.305429,0.19702 0.54654,0.49218 1.521485,0.49218 0.961429,0 3.766089,-0.0508 5.224609,-0.10351 0.0039,1e-5 0.0078,1e-5 0.01172,0 1.129472,-0.0476 2.205668,-0.48638 3.050781,-1.2168 0.07384,0.0594 0.145932,0.14803 0.220703,0.20313 0.284969,0.20998 0.571669,0.38757 0.890625,0.54297 0.318956,0.15539 0.559994,0.35351 1.371094,0.35351 2.130276,0 4.090571,-0.009 5.341797,-0.10547 0.370588,-0.0157 1.047751,-0.1296 1.578125,-0.48047 0.100706,-0.0666 0.112755,-0.1319 0.195312,-0.19922 0.228395,0.15704 0.455173,0.30799 0.708985,0.43165 0.318956,0.15539 0.559992,0.35351 1.371093,0.35351 2.131044,0 4.090649,-0.009 5.341797,-0.10547 0.370589,-0.0157 1.047751,-0.1296 1.578125,-0.48047 0.53296,-0.35257 0.786194,-0.7184 1.029297,-1.05664 l 0.0039,-0.006 c 0.205277,-0.28738 0.402106,-0.56379 0.56836,-1 0.166253,-0.4362 0.199219,-0.92685 0.199219,-1.16211 0,-0.78653 -0.10672,-1.24807 -0.365235,-1.95898 -0.0026,-0.007 -0.0052,-0.013 -0.0078,-0.0195 -0.101456,-0.27054 -0.340899,-0.36782 -0.507813,-0.56445 0.04599,-0.0935 0.17195,-0.16038 0.203125,-0.25 0.01038,-0.0284 0.02015,-0.0571 0.0293,-0.0859 0.02377,-0.0793 0.207031,-0.39634 0.207031,-1.13281 0,-0.55561 -0.180958,-1.17285 -0.585937,-1.75782 0.09333,-0.16837 0.286912,-0.35381 0.33789,-0.49218 0.004,-0.0117 0.0079,-0.0234 0.01172,-0.0352 0.06072,-0.17457 0.165822,-0.46048 0.263672,-0.78125 0.09785,-0.32077 0.226563,-0.58867 0.226563,-1.26953 0,-0.0831 -0.06186,-0.15804 -0.07617,-0.25196 0.06781,0.003 0.08818,0.0293 0.162109,0.0293 0.866657,0 1.011017,-0.12416 1.513672,-0.24219 0.502655,-0.11802 0.992972,-0.24602 1.441406,-0.40429 0.0026,-6.6e-4 0.0052,-10e-4 0.0078,-0.002 0.976762,-0.34881 5.849378,1.66034 7.035315,1.66034 0.866657,0 1.292121,-1.13608 1.794776,-1.25411 0.502655,-0.11802 0.992971,-0.24602 1.441406,-0.40429 0.0026,-6.6e-4 0.0052,-0.001 0.0078,-0.002 0.976762,-0.34881 1.792968,-1.57477 1.792968,-2.58593 0,-0.0399 -0.0033,-0.0682 -0.0039,-0.10547 0.150684,-0.0198 0.285424,-0.0384 0.433594,-0.0586 0.597296,-0.0814 4.090832,2.14635 4.044922,2.37305 -0.102313,0.41176 -0.171875,0.79717 -0.171875,1.0918 0,0.35274 0.09717,1.00931 0.341797,1.4707 0.244625,0.46139 0.431432,0.64045 0.634765,0.89258 0.0084,0.0105 0.01683,0.0209 0.02539,0.0312 0.222572,0.26537 0.417288,0.57039 0.96289,0.93164 0.545603,0.36125 1.297598,0.48438 1.742188,0.48437 1.109159,0 2.37626,-0.14636 3.404297,-0.31445 0.470601,-0.0763 1.171718,-0.30834 1.68164,-0.67383 0.503746,-0.36105 0.842636,-0.73644 1.304688,-1.24218 l 0.002,-0.004 c 0.398184,-0.42678 0.69432,-0.7683 0.951172,-1.17383 0.257577,-0.40667 0.466972,-0.96644 0.517578,-1.42187 0.0015,-0.0149 0.0028,-0.0299 0.0039,-0.0449 0.164462,-1.83653 0.332032,-9.69105 0.332032,-10.82227 0,-0.50101 -0.113534,-1.36033 -0.675782,-2.01758 -0.562247,-0.65725 -1.105808,-0.81849 -1.511718,-0.97461 -0.01427,-0.005 -0.02859,-0.0105 -0.04297,-0.0156 -0.446705,-0.16082 -1.039472,-0.31055 -1.478516,-0.31055 -0.646683,0 -1.21663,0.2394 -1.689453,0.44922 -0.336435,0.14242 -0.774495,0.41699 -1.208984,0.82422 -0.466991,-0.53993 -0.959251,-0.78601 -1.283203,-0.92774 -0.01555,-0.007 -0.03117,-0.0132 -0.04687,-0.0195 -0.407717,-0.16679 -0.856764,-0.35937 -1.478516,-0.35937 -0.537841,0 -1.057941,0.15798 -1.667969,0.36133 -0.284706,0.0949 -0.603363,0.21645 -0.93164,0.36523 -0.234326,0.0984 -0.315331,0.25894 -0.490235,0.38086 -1.017513,-0.87988 -2.290616,-1.42969 -3.632812,-1.42969 -0.885697,0 -1.679594,0.15329 -2.773438,0.30469 -1.093844,0.15139 -2.267739,0.31787 -2.761719,0.36523 -0.02021,0.002 -0.0404,0.004 -0.06055,0.006 -0.401379,0.0502 -0.770251,0.40317 -1.152344,0.6875 -1.002872,-0.83062 -2.227945,-1.36328 -3.529297,-1.36328 -0.885696,0 -1.679594,0.15329 -2.773438,0.30469 -1.093843,0.15139 -2.269691,0.31787 -2.763671,0.36523 -0.02021,0.002 -0.0404,0.004 -0.06055,0.006 -0.615232,0.0769 -1.375749,0.4977 -1.765625,1.05078 -0.0082,0.0117 -0.0018,0.0196 -0.0098,0.0312 -0.207629,-0.64253 -0.725509,-1.22164 -1.228516,-1.49414 -0.508079,-0.27524 -0.958622,-0.33203 -1.339843,-0.33203 -0.542381,0 -0.639555,0.0507 -1.001953,0.10352 -0.362399,0.0528 -0.793537,0.12127 -1.230469,0.19336 -0.873865,0.14416 -1.773721,0.30224 -2.111328,0.36133 -0.04984,0.009 -0.09935,0.019 -0.148438,0.0312 -0.854485,0.21361 -1.715112,0.72737 -2.103515,1.89257 -0.004,0.0117 -0.0079,0.0234 -0.01172,0.0352 l -1.654297,5.26758 c -0.160182,-0.0283 -0.344841,-0.17969 -0.474609,-0.17969 -0.398198,0 -1.037677,0.009 -1.81836,0.0176 0.02485,-0.48092 0.03056,-0.61085 0.0625,-1.16992 0.07215,-1.2628 0.146485,-2.49134 0.146485,-3.19922 0,-1.29711 -0.756631,-2.35574 -1.923829,-2.72071 -0.3727,-0.15977 -0.718847,-0.48046 -1.9375,-0.48046 -1.087293,0 -1.668779,0.42292 -1.910156,0.53906 -0.05462,0.0254 -0.08555,0.0849 -0.138672,0.11328 -0.162055,-0.1555 -0.252018,-0.32206 -0.507812,-0.47461 -0.577201,-0.34424 -1.312651,-0.39844 -1.574219,-0.39844 z"
         id="path3"
         sodipodi:nodetypes="cscscsscccssssscccssscscsscsccsscccccscccsscssccssccscscssccsscsccsccssccsccccssccsscccssccccsssscccccscsscsccscc" /><path
         style="font-weight:bold;font-size:16.9333px;font-family:'Roboto Mono';-inkscape-font-specification:'Roboto Mono Bold';text-align:end;letter-spacing:0px;baseline-shift:baseline;text-anchor:end;display:inline;overflow:visible;vector-effect:none;fill:#ffffff;stroke-linecap:round;stroke-linejoin:round;stroke-miterlimit:8;paint-order:stroke fill markers;enable-background:accumulate;stop-color:#000000;stop-opacity:1"
         d="m 41.079663,115.06274 c -1.151465,0 -4.012819,0.21995 -5.638416,0.33848 -0.355599,0.0339 -0.525152,0.22012 -0.542086,0.50798 -0.152399,2.2352 -0.33848,5.4358 -0.33848,9.29659 0,0.37254 0.270727,0.54182 0.84646,0.79582 0.609598,0.27093 0.948428,0.38964 1.117761,0.38964 0.203199,0 0.321527,-2.9e-4 0.84646,-0.18655 0.745065,-0.254 0.965316,-0.37252 0.965316,-0.72812 v -2.48926 c 0,-0.27093 0.186043,-0.40617 0.406176,-0.40617 0.880532,0 1.930704,-0.0339 2.743502,-0.0847 0.795865,-0.0339 0.863513,-1.65937 0.863513,-1.59164 0,-0.33866 -0.372567,-0.82992 -0.880566,-0.82992 h -3.234428 c -0.287866,0 -0.389124,-0.38913 -0.389124,-0.60927 0,-0.42333 0.0674,-0.9485 0.609266,-0.98236 0.829731,-0.0339 2.861821,-0.0675 3.36982,-0.18604 0.524932,-0.1016 0.694531,-0.5083 0.694531,-1.5751 0,-0.4064 -0.01687,-0.54198 -0.355534,-0.96531 -0.541866,-0.6604 -0.677772,-0.69402 -1.084171,-0.69402 z m 18.338932,0.0677 c -0.4064,0 -3.301754,0.50778 -3.979086,0.62632 -0.270932,0.0677 -0.525115,0.25398 -0.609782,0.50798 l -2.370914,7.55251 c -0.06773,0.22013 -0.01697,0.40634 0.0677,0.57567 l 0.474389,1.08366 c 0.118534,0.27093 0.355672,0.38964 0.812871,0.38964 1.473197,0 1.964424,-0.034 2.066024,-0.45734 l 0.33848,-1.50688 c 0.01693,-0.13547 0.118662,-0.23704 0.237195,-0.28784 0.1524,-0.0847 0.287513,-0.1018 1.117244,-0.1018 0.761999,0 1.033298,0.0338 1.219564,0.57567 l 0.490926,1.49035 c 0.1016,0.3048 0.321916,0.49117 0.609782,0.52503 0.491066,0.0677 0.948003,0.15245 1.422136,0.15245 0.626532,0 1.337902,-0.71153 1.337902,-1.28726 0,-0.11854 -0.01702,-0.25414 -0.08475,-0.45734 l -2.591056,-9.02529 c -0.08467,-0.27093 -0.33849,-0.35553 -0.558622,-0.35553 z m 9.939961,0.0677 c -0.745065,0 -4.09791,0.5419 -5.334041,0.66043 -0.270933,0.0339 -0.38976,0.23729 -0.406694,0.54209 -0.135466,3.16652 -0.440283,7.1118 -0.440283,8.585 0.03387,0.9652 0.999357,1.4733 1.354956,1.4733 0.321733,0 1.676327,-0.32184 2.252059,-0.52504 0.237066,-0.0847 0.38964,-0.28793 0.38964,-0.59273 0,-0.25399 -0.0677,-1.15156 -0.0677,-1.47329 0,-0.33867 0.10158,-0.49077 0.50798,-0.54157 1.134531,-0.16933 2.641642,-0.32211 3.217374,-0.49144 1.540931,-0.4064 1.947168,-2.08259 1.947168,-3.91139 0,-1.1176 -0.338903,-2.049 -0.982369,-2.7094 -0.677332,-0.6604 -1.540629,-1.01596 -2.438094,-1.01596 z m 10.278442,0 c -0.745065,0 -4.09791,0.5419 -5.334041,0.66043 -0.270933,0.0339 -0.389243,0.23729 -0.406177,0.54209 -0.135466,3.16652 -0.440283,7.1118 -0.440283,8.585 0.03387,0.9652 0.99884,1.4733 1.354439,1.4733 0.321733,0 1.676327,-0.32184 2.252059,-0.52504 0.237067,-0.0847 0.389641,-0.28793 0.389641,-0.59273 0,-0.25399 -0.0677,-1.15156 -0.0677,-1.47329 0,-0.33867 0.101581,-0.49077 0.50798,-0.54157 1.134531,-0.16933 2.641642,-0.32211 3.217374,-0.49144 1.540931,-0.4064 1.947168,-2.08259 1.947168,-3.91139 0,-1.1176 -0.338386,-2.049 -0.981852,-2.7094 -0.677332,-0.6604 -1.541146,-1.01596 -2.438611,-1.01596 z m -34.425288,0.0847 c -0.355599,0 -0.694226,0.18609 -1.015959,0.33848 -0.220133,0.1016 -0.38964,0.32208 -0.38964,0.55914 -0.0508,0.72814 -0.304891,6.80708 -0.304891,8.22948 0,0.84666 0.389592,1.40556 1.185457,1.47329 1.490131,0.11853 3.860585,0.23668 5.807915,0.23668 0.406399,0 0.609744,-0.27095 0.677478,-0.44028 0.355599,-0.9144 0.507979,-1.35437 0.507979,-1.48984 0,-0.11853 -0.01698,-0.2374 -0.152446,-0.55914 -0.220132,-0.60959 -0.44006,-0.79581 -0.84646,-0.79581 -0.711198,0 -3.217189,0.0341 -3.555855,0.0341 -0.355599,0 -0.457336,-0.33869 -0.457336,-0.66042 0,-0.59267 0.287838,-4.82602 0.287838,-5.84202 0,-0.44027 -0.270951,-0.66027 -0.440284,-0.71107 -0.406399,-0.1524 -0.982063,-0.37259 -1.303796,-0.37259 z m 41.147875,0.2372 c -0.237066,0 -0.389306,0.0505 -0.998905,0.25373 -0.254,0.0847 -0.525281,0.18636 -0.779281,0.30489 -0.203199,0.0847 -0.3386,0.32183 -0.355533,0.52503 -0.03387,0.42334 -0.169499,4.48735 -0.169499,5.62188 0,0.72813 0.101948,0.98217 0.77928,1.82883 0.728132,0.93133 1.083359,1.08366 1.625224,1.08366 0.423333,0 2.590797,-0.28784 3.064929,-0.28784 0.507999,0 0.660425,0.18613 0.660425,0.71107 0,0.6604 -0.287624,0.94835 -0.914156,1.25315 -0.338666,0.16933 -0.948166,0.20294 -2.539897,0.47387 -0.440265,0.0677 -0.576035,0.45759 -0.626835,0.71159 -0.101599,0.38946 -0.118339,0.52484 -0.118339,0.64337 0,0.42333 0.08465,0.50808 0.50798,1.03301 0.440265,0.52493 0.558722,0.66043 1.083654,0.66043 0.897465,0 2.133598,-0.13544 3.06493,-0.28784 0.626532,-0.1016 0.880721,-0.28808 1.778186,-1.27021 0.711198,-0.762 0.880289,-1.08375 0.914156,-1.38854 0.101599,-1.13454 0.321944,-9.97358 0.321944,-10.63398 0,-0.6096 -0.169525,-0.76196 -0.829924,-1.01596 -0.423332,-0.1524 -0.541577,-0.18655 -0.76171,-0.18655 -0.220133,0 -0.389778,0.0676 -0.846977,0.27078 -0.677332,0.28787 -0.863513,0.45725 -0.863513,1.10071 0,1.03293 0.01705,2.99745 0.01705,4.48758 0,0.254 -0.152334,0.43997 -0.355534,0.54157 -0.321733,0.1524 -1.337837,0.1695 -1.693436,0.1695 -0.643466,0 -0.745175,-0.40655 -0.745175,-0.67748 0,-0.89746 0.169499,-3.21731 0.169499,-4.74131 0,-0.59267 -0.169202,-0.74479 -0.711068,-0.98185 -0.372532,-0.1524 -0.525078,-0.20309 -0.677478,-0.20309 z m -18.203539,2.50579 c 0.982131,0 1.388545,0.50793 1.388545,1.3038 0,0.54186 -0.135132,0.96556 -0.609265,1.21956 -0.270933,0.13547 -1.439751,0.27078 -1.592151,0.27078 -0.253999,0 -0.457179,-0.15229 -0.507979,-0.42323 -0.08467,-0.49106 -0.08423,-0.71143 -0.08423,-1.93063 0,-0.3556 0.541484,-0.44028 1.405083,-0.44028 z m 10.278442,0 c 0.982131,0 1.388546,0.50793 1.388546,1.3038 0,0.54186 -0.135133,0.96556 -0.609266,1.21956 -0.270932,0.13547 -1.439234,0.27078 -1.591634,0.27078 -0.253999,0 -0.457179,-0.15229 -0.507979,-0.42323 -0.08467,-0.49106 -0.08475,-0.71143 -0.08475,-1.93063 0,-0.3556 0.541484,-0.44028 1.405082,-0.44028 z m -20.777026,0.77928 c 0.152399,0 0.389723,0.0677 0.474389,0.28784 0.1016,0.38946 0.270905,1.06645 0.287838,1.33738 0.06773,0.52494 -0.27117,0.59273 -0.982369,0.59273 -0.389466,0 -0.778764,-0.017 -0.778764,-0.52503 0,-0.27093 0.08483,-0.69395 0.169499,-1.04955 0.08467,-0.38946 0.355274,-0.64337 0.829407,-0.64337 z m -5.757271,8.8253 c -1.507064,0 -4.233366,0.23712 -6.062163,0.37259 -0.237066,0.0169 -0.440283,0.23708 -0.440283,0.44028 -0.118533,3.01413 -0.372587,7.92487 -0.372587,9.0594 0,0.49106 1.270104,1.33738 1.693437,1.33738 2.150529,0 4.199427,-0.0166 5.249292,-0.10128 0.423332,-0.0169 0.592903,-0.11856 0.982369,-0.66043 0.338666,-0.47413 0.372587,-0.60948 0.372587,-0.93121 0,-0.28786 -0.101729,-0.86357 -0.237195,-1.2361 -0.0508,-0.13546 -0.237332,-0.28784 -0.694531,-0.28784 -0.982132,0 -1.981116,0.11834 -2.98018,0.11834 -0.440266,0 -0.676961,-0.13533 -0.676961,-0.71106 0,-0.49107 0.135446,-0.67772 0.507979,-0.71159 0.423332,-0.0339 1.862296,-0.10125 2.793628,-0.16898 0.338666,-0.0339 0.592654,-0.10198 0.728121,-0.49144 0.0508,-0.16934 0.118855,-0.35519 0.118855,-0.52452 0,-0.44027 -0.237415,-0.86363 -0.77928,-0.88057 -0.609599,-0.0339 -2.268944,-0.0341 -3.047876,-0.1018 -0.338666,-0.0339 -0.440283,-0.23721 -0.440283,-0.67748 0,-0.3556 0.08492,-0.52475 0.474389,-0.55862 l 3.01377,-0.23719 c 0.372532,-0.0339 0.541892,-0.20279 0.660425,-0.52452 0.135466,-0.38947 0.372587,-1.03322 0.372587,-1.35496 0,-0.13546 -0.03367,-0.22006 -0.118339,-0.35553 -0.507999,-0.72813 -0.558963,-0.81287 -1.117761,-0.81287 z m 9.194787,0 c -1.507064,0 -4.233366,0.23712 -6.062162,0.37259 -0.237066,0.0169 -0.440283,0.23708 -0.440283,0.44028 -0.118534,3.01413 -0.372587,7.92487 -0.372587,9.0594 0,0.49106 1.270104,1.33738 1.693436,1.33738 2.150529,0 4.199427,-0.0166 5.249292,-0.10128 0.423333,-0.0169 0.592903,-0.11856 0.982369,-0.66043 0.338666,-0.47413 0.372587,-0.60948 0.372587,-0.93121 0,-0.28786 -0.101728,-0.86357 -0.237195,-1.2361 -0.0508,-0.13546 -0.237332,-0.28784 -0.694531,-0.28784 -0.982131,0 -1.981115,0.11834 -2.98018,0.11834 -0.440266,0 -0.677478,-0.13533 -0.677478,-0.71106 0,-0.49107 0.135964,-0.67772 0.508496,-0.71159 0.423333,-0.0339 1.862297,-0.10125 2.793628,-0.16898 0.338666,-0.0339 0.592655,-0.10198 0.728121,-0.49144 0.0508,-0.16934 0.118856,-0.35519 0.118856,-0.52452 0,-0.44027 -0.237415,-0.86363 -0.779281,-0.88057 -0.609598,-0.0339 -2.268944,-0.0341 -3.047876,-0.1018 -0.338666,-0.0339 -0.440283,-0.23721 -0.440283,-0.67748 0,-0.3556 0.08492,-0.52475 0.47439,-0.55862 l 3.013769,-0.23719 c 0.372533,-0.0339 0.541892,-0.20279 0.660425,-0.52452 0.135467,-0.38947 0.372587,-1.03322 0.372587,-1.35496 0,-0.13546 -0.03367,-0.22006 -0.118339,-0.35553 -0.507999,-0.72813 -0.558962,-0.81287 -1.117761,-0.81287 z m -20.251994,0.13539 c -0.186266,0 -0.406305,1.2e-4 -0.643371,0.0171 -1.608664,0.1016 -3.33632,0.27071 -4.589384,0.40617 -0.440266,0.0508 -0.660148,0.25427 -0.694014,0.69453 -0.135467,2.42147 -0.355534,7.67066 -0.355534,8.73746 0,0.50799 1.016013,1.43918 1.388545,1.43918 0.880532,0 3.742026,-0.0505 5.14749,-0.10128 1.608663,-0.0677 2.624646,-1.1177 2.624646,-2.6417 0,-0.98213 -0.169434,-1.37163 -0.525033,-1.82883 -0.237066,-0.3048 -0.676961,-0.71123 -0.676961,-0.88057 0,-0.28786 0.0166,-0.11824 0.609265,-0.76171 0.406399,-0.4572 0.542169,-0.66039 0.626835,-0.94826 0.1016,-0.4064 0.152446,-0.64384 0.152446,-1.43971 0,-1.72719 -1.303866,-2.69234 -3.06493,-2.69234 z m -1.337902,3.01429 c 0.660398,0 1.168404,0.23718 1.168404,0.96531 0,0.6604 -0.338442,0.98186 -1.35444,0.98186 -1.28693,0 -1.422652,-0.10145 -1.422652,-1.21905 0,-0.72813 0.54189,-0.72812 1.608688,-0.72812 z m 0.152445,3.55585 c 0.507999,0 0.931209,0.28791 0.931209,0.88057 0,0.79587 -0.660357,0.98237 -1.964221,0.98237 -0.660398,0 -0.728121,-0.32177 -0.728121,-0.88057 0.01693,-0.54186 0.0677,-0.69457 0.287838,-0.84697 0.118533,-0.0847 0.541964,-0.1354 1.473295,-0.1354 z"
         id="path16" /></g><g
       id="g15"
       transform="matrix(0.42325898,-0.09097813,0.09097813,0.42325898,59.452256,126.28255)"><path
         stroke="none"
         fill="#353541"
         d="m 53.85,10.2 q 4.1,4.15 4.15,9.9 v 0.05 q 0,5.65 -3.9,9.75 l -0.25,0.25 -0.15,0.2 -1.15,1.1 6.2,3.3 0.2,0.1 q 2.1,1.05 2.8,3.4 l 0.25,1.8 q 0.05,0.85 -0.3,1.85 -0.8,2.4 -2.65,3.25 l -0.1,0.05 -7.35,3.85 -1.05,1.95 -0.7,0.7 Q 48.45,52.85 46.4,53 H 46.05 L 43.4,52.95 q -3,2.45 -6.5,3.45 L 36.8,56.45 32,57 H 20 19.7 19.6 19.25 19.05 Q 12.25,56.7 7.3,51.75 2.95,47.4 2.2,41.55 v 0.1 L 2,39 Q 2,32.9 5.55,28.3 3,24.7 3,20.15 3,14.4 7.15,10.2 H 7.2 Q 11.3,6 17.15,6 q 5.7,0 9.8,3.95 L 27,10 l 0.35,0.35 3.15,3.55 3,-3.4 0.6,-0.6 0.2,-0.15 0.05,-0.05 0.1,-0.1 q 4,-3.6 9.4,-3.6 h 0.05 q 5.75,0.05 9.9,4.15 l 0.05,0.05"
         id="path4" /><path
         stroke="none"
         fill="#bbc4cb"
         d="m 47.4,40 v -5.8 l 0.45,-0.2 1.15,0.1 8.05,4.25 q 0.65,0.3 0.85,1 L 58,40.05 47.4,40"
         id="path5" /><path
         stroke="none"
         fill="url(#gradient0)"
         d="m 47.4,40 10.6,0.05 -0.1,0.55 -0.8,1.05 -8.05,4.2 -1.2,0.1 -0.45,-0.1 V 40"
         id="path6"
         style="fill:url(#gradient0)" /><path
         stroke="none"
         fill="#e28f2b"
         d="m 48.05,33.1 q 1.4,6.95 -0.15,14.1 l -0.55,1.35 q -0.5,0.4 -1.25,0.45 l -3.35,-0.05 q -0.7,0 -1.2,-0.4 Q 41.05,47.9 41.1,47.2 L 41,32.8 q 0.05,-0.75 0.55,-1.3 0.55,-0.45 1.2,-0.5 l 3.4,0.05 q 0.8,-0.05 1.2,0.45 0.55,0.55 0.7,1.6"
         id="path7" /><path
         stroke="none"
         fill="url(#gradient1)"
         d="M 10.1,27.5 9.75,27.15 Q 7,24.2 7,20.15 7,16 10,13 q 2.95,-3 7.15,-3 4.1,0 7,2.8 l 0.35,0.35 q 5.3,5.35 6.95,11.1 1.6,5.85 -1.35,8.85 -3,3 -8.8,1.3 -5.85,-1.55 -11.2,-6.9"
         id="path8"
         style="fill:url(#gradient1)" /><path
         stroke="none"
         fill="#ffd751"
         d="m 35.8,29.5 -0.25,-0.4 q -2.4,-4 -5.8,-4.1 H 32 q 5.8,0 9.9,4.1 4.1,4.1 4.1,9.9 l -0.1,2 q -0.65,-4.55 -4,-7.9 -2.7,-2.7 -6.1,-3.6 M 19.7,25 q 1.8,0.05 3.3,1.15 1.35,0.95 2.5,2.85 H 20 19.7 19.6 l -0.35,0.05 Q 13.95,29.25 10.1,33.1 6.75,36.45 6.15,41 L 6,39 q 0,-5.8 4.1,-9.9 3.85,-3.85 9.15,-4.05 L 19.6,25 h 0.1"
         id="path9" /><path
         stroke="none"
         fill="#525262"
         d="m 19.7,25 h 0.3 9.75 q 3.4,0.1 5.8,4.1 L 35.8,29.5 32,29 H 25.5 Q 24.35,27.1 23,26.15 21.5,25.05 19.7,25"
         id="path10" /><path
         stroke="none"
         fill="#474758"
         d="M 25.5,29 H 32 l 3.8,0.5 Q 38,33.45 38,39 l -0.05,2 q -0.4,4.55 -2.4,7.9 -2.4,4 -5.8,4.1 H 20 19.7 q 1.8,-0.05 3.3,-1.15 1.4,-1 2.55,-2.95 2,-3.35 2.4,-7.9 L 28,39 q 0,-5.8 -2.45,-9.9 L 25.5,29"
         id="path11" /><path
         stroke="none"
         fill="#faba2d"
         d="m 25.5,29 0.05,0.1 Q 28,33.2 28,39 l -0.05,2 q -0.4,4.55 -2.4,7.9 Q 24.4,50.85 23,51.85 21.5,52.95 19.7,53 H 19.6 19.25 Q 13.95,52.75 10.1,48.9 6.75,45.55 6.15,41 q 0.6,-4.55 3.95,-7.9 3.85,-3.85 9.15,-4.05 L 19.6,29 h 0.1 0.3 5.5 m 10.3,0.5 q 3.4,0.9 6.1,3.6 3.35,3.35 4,7.9 -0.65,4.55 -4,7.9 -2.7,2.7 -6.1,3.65 L 32,53 h -2.25 q 3.4,-0.1 5.8,-4.1 2,-3.35 2.4,-7.9 L 38,39 q 0,-5.55 -2.2,-9.5"
         id="path12" /><path
         stroke="none"
         fill="#353541"
         d="M 20.8,43.95 Q 19.6,45.1 18,45.1 16.35,45.1 15.2,43.95 14,42.75 14,41.1 q 0,-1.65 1.2,-2.85 1.15,-1.15 2.8,-1.15 1.6,0 2.8,1.15 1.2,1.2 1.2,2.85 0,1.65 -1.2,2.85 M 20.7,41.4 q 0.45,-0.45 0.45,-1.1 0,-0.7 -0.45,-1.15 -0.5,-0.45 -1.15,-0.45 -0.65,0 -1.1,0.45 Q 18,39.6 18,40.3 q 0,0.65 0.45,1.1 0.45,0.5 1.1,0.5 0.65,0 1.15,-0.5"
         id="path13" /><path
         stroke="none"
         fill="#5d5d67"
         d="m 20.7,41.4 q -0.5,0.5 -1.15,0.5 -0.65,0 -1.1,-0.5 Q 18,40.95 18,40.3 q 0,-0.7 0.45,-1.15 0.45,-0.45 1.1,-0.45 0.65,0 1.15,0.45 0.45,0.45 0.45,1.15 0,0.65 -0.45,1.1"
         id="path14" /><path
         stroke="none"
         fill="#ffffff"
         d="m 50.85,27.5 q -5.3,5.3 -11.1,6.9 -5.85,1.65 -8.8,-1.35 -3,-2.95 -1.35,-8.8 1.6,-5.8 6.9,-11.1 l 0.35,-0.35 q 2.95,-2.8 7,-2.8 4.15,0.05 7.15,3 2.95,3 3,7.15 0,4.05 -2.8,7 l -0.35,0.35"
         id="path15" /></g></g></svg>
